<mxfile host="Electron" modified="2024-02-15T08:05:55.664Z" agent="Mozilla/5.0 (Windows NT 10.0; Win64; x64) AppleWebKit/537.36 (KHTML, like Gecko) draw.io/22.0.3 Chrome/114.0.5735.289 Electron/25.8.4 Safari/537.36" etag="3pV7lnTBauzLNOtoPcri" version="22.0.3" type="device">
  <diagram name="페이지-1" id="px1Wl2Hb0zelyi-nihy5">
    <mxGraphModel dx="1434" dy="836" grid="1" gridSize="10" guides="1" tooltips="1" connect="1" arrows="1" fold="1" page="1" pageScale="1" pageWidth="827" pageHeight="1169" math="0" shadow="0">
      <root>
        <mxCell id="0" />
        <mxCell id="1" parent="0" />
        <mxCell id="ijSc7wbduYBFbOyhkJsg-36" style="edgeStyle=orthogonalEdgeStyle;rounded=0;orthogonalLoop=1;jettySize=auto;html=1;entryX=0;entryY=0.5;entryDx=0;entryDy=0;startArrow=classic;startFill=1;" edge="1" parent="1" source="ijSc7wbduYBFbOyhkJsg-1" target="ijSc7wbduYBFbOyhkJsg-5">
          <mxGeometry relative="1" as="geometry" />
        </mxCell>
        <mxCell id="ijSc7wbduYBFbOyhkJsg-37" style="edgeStyle=orthogonalEdgeStyle;rounded=0;orthogonalLoop=1;jettySize=auto;html=1;entryX=0.5;entryY=1;entryDx=0;entryDy=0;" edge="1" parent="1" source="ijSc7wbduYBFbOyhkJsg-1" target="ijSc7wbduYBFbOyhkJsg-2">
          <mxGeometry relative="1" as="geometry" />
        </mxCell>
        <mxCell id="ijSc7wbduYBFbOyhkJsg-1" value="&lt;span data-meta=&quot;&lt;--(miro-data-v1)tl2kroutqq+gnq+gn111oZynrqBnXZ2qnK2fhJ9ddV2wk6WRiY+rqZ2DlHhdZ12fnK+cXXW2XaqdpaCer65ddZa2XbKkn6Kgr3+cr5xddbZdpa6qqV11tl2upLWgXXW2XbKkn6+jXXVsdHRnXaOgpKKjr111bW1zuGddmquqrqSvpKqpXXW2Xaqhoa6gr4uzXXW2XbNddWtnXbRddWu4uGddrp6cp6BddbZdrp6cp6BddWxpb3F0cm5ucW5sc2ttbHRsdLhnXa2gp5yvpLGgjp6cp6BddWxpb3F0cm5ucW5sc2ttbHRsdGddraqvnK+kqqlddbZdraqvnK+kqqlddWu4Z12toKecr6SxoI2qr5yvpKqpXXVrZ12aq5ytoKmvXXWpsKenZ12voLOvXXVdd6t5g7ConKn923dqq3l3q3mNoK6qsK2eoK53aqt5XWddrq+0p6BddV22l12unZ6XXXVscXJycHFrbGeXXaGul111bm1nl12hrpyXXXVsZ5ddoaGpl111l12Kq6CpjpyprpddZ5ddr5yXXXWXXZ6XXWeXXa+csZdddZddqJddZ5ddr5yyl111bHBwZ5ddr5yjl111bHBxZ5ddp6OXXXVsaW5xuF1nXamudZywr6OqrV11tl2kn111XW5vcHNycW9wcXBzdHJzc3BybHJdZ12gqZydp6CfXXWhnKeuoLi4Z12vtKugXXVdrq+knqagrV24Z12vtKugXXVsb2ddpJ9ddWtnXaSppK+knKeEn111XW5vcHNycW9wcmxza3Ntb290c2xduJhnXaigr5xddba4uGddsaCtrqSqqV11bWddo6qur111XaikrappnqqoXbg=(/miro-data-v1)--&gt;&quot;&gt;&lt;/span&gt;&lt;div&gt;&lt;div&gt;&lt;div&gt;Human&amp;nbsp;&lt;/div&gt;&lt;div&gt;Resources&lt;/div&gt;&lt;/div&gt;&lt;div&gt;&lt;/div&gt;&lt;div&gt;&lt;/div&gt;&lt;/div&gt;" style="text;whiteSpace=wrap;html=1;strokeColor=default;" vertex="1" parent="1">
          <mxGeometry x="560" y="430" width="90" height="50" as="geometry" />
        </mxCell>
        <mxCell id="ijSc7wbduYBFbOyhkJsg-45" style="edgeStyle=orthogonalEdgeStyle;rounded=0;orthogonalLoop=1;jettySize=auto;html=1;entryX=0.5;entryY=1;entryDx=0;entryDy=0;" edge="1" parent="1" source="ijSc7wbduYBFbOyhkJsg-2" target="ijSc7wbduYBFbOyhkJsg-3">
          <mxGeometry relative="1" as="geometry" />
        </mxCell>
        <mxCell id="ijSc7wbduYBFbOyhkJsg-2" value="&lt;span data-meta=&quot;&lt;--(miro-data-v1)tl2kroutqq+gnq+gn111oZynrqBnXZ2qnK2fhJ9ddV2wk6WRiY+rqZ2DlHhdZ12fnK+cXXW2XaqdpaCer65ddZa2XbKkn6Kgr3+cr5xddbZdpa6qqV11tl2upLWgXXW2XbKkn6+jXXVsdHRnXaOgpKKjr111bW1zuGddmquqrqSvpKqpXXW2Xaqhoa6gr4uzXXW2XbNddWtnXbRddWu4uGddrp6cp6BddbZdrp6cp6BddWxpbm5ycW9tbGt0bm1ycG1tc7hnXa2gp5yvpLGgjp6cp6BddWxpbm5ycW9tbGt0bm1ycG1tc2ddraqvnK+kqqlddbZdraqvnK+kqqlddWu4Z12toKecr6SxoI2qr5yvpKqpXXVrZ12aq5ytoKmvXXWpsKenZ12voLOvXXVdd6t5fbCkp5+kqaJbqJypnKKgqKCpr3dqq3ldZ12ur7SnoF11XbaXXa6dnpdddWxxcnJwcWtsZ5ddoa6XXXVtb2eXXaGunJdddWxnl12hoamXXXWXXYqroKmOnKmul11nl12vnJdddZddnpddZ5ddr5yxl111l12ol11nl12vnLKXXXVscHBnl12vnKOXXXVscHFnl12no5dddWxpbnG4XWddqa51nLCvo6qtXXW2XaSfXXVdbm9wc3Jxb3BxcHN0cnNzcHJscl1nXaCpnJ2noJ9ddaGcp66guLhnXa+0q6BddV2ur6SepqCtXbhnXa+0q6BddWxvZ12kn111a2ddpKmkr6Scp4SfXXVdbm9wc3Jxb3BydGtzcGtsbm1ucF24mGddqKCvnF11tri4Z12xoK2upKqpXXVtZ12jqq6vXXVdqKStqmmeqqhduA==(/miro-data-v1)--&gt;&quot;&gt;&lt;/span&gt;&lt;div&gt;&lt;div&gt;&lt;div&gt;Building management&lt;/div&gt;&lt;/div&gt;&lt;div&gt;&lt;/div&gt;&lt;div&gt;&lt;/div&gt;&lt;/div&gt;" style="text;whiteSpace=wrap;html=1;strokeColor=default;" vertex="1" parent="1">
          <mxGeometry x="530" y="340" width="150" height="40" as="geometry" />
        </mxCell>
        <mxCell id="ijSc7wbduYBFbOyhkJsg-3" value="&lt;span data-meta=&quot;&lt;--(miro-data-v1)tl2kroutqq+gnq+gn111oZynrqBnXZ2qnK2fhJ9ddV2wk6WRiY+rqZ2DlHhdZ12fnK+cXXW2XaqdpaCer65ddZa2XbKkn6Kgr3+cr5xddbZdpa6qqV11tl2upLWgXXW2XbKkn6+jXXVsdHRnXaOgpKKjr111bW1zuGddmquqrqSvpKqpXXW2Xaqhoa6gr4uzXXW2XbNddWtnXbRddWu4uGddrp6cp6BddbZdrp6cp6BddWxpa3K4Z12toKecr6SxoI6enKegXXVsaWtyZ12tqq+cr6SqqV11tl2tqq+cr6SqqV11a7hnXa2gp5yvpLGgjaqvnK+kqqlddWtnXZqrnK2gqa9ddamwp6dnXa+gs69ddV13q3mSqq2mrqucnqB3aqt5d6t5qJypnKKgqKCpr3dqq3ldZ12ur7SnoF11XbaXXa6dnpdddWxxcnJwcWtsZ5ddoa6XXXVtb2eXXaGunJdddWxnl12hoamXXXWXXYqroKmOnKmul11nl12vnJdddZddnpddZ5ddr5yxl111l12ol11nl12vnLKXXXVscHBnl12vnKOXXXVscHFnl12no5dddWxpbnG4XWddqa51nLCvo6qtXXW2XaSfXXVdbm9wc3Jxb3BxcHN0cnNzcHJscl1nXaCpnJ2noJ9ddaGcp66guLhnXa+0q6BddV2ur6SepqCtXbhnXa+0q6BddWxvZ12kn111a2ddpKmkr6Scp4SfXXVdbm9wc3Jxb3Bxc3FtcGtudG1rbl24mGddqKCvnF11tri4Z12xoK2upKqpXXVtZ12jqq6vXXVdqKStqmmeqqhduA==(/miro-data-v1)--&gt;&quot;&gt;&lt;/span&gt;&lt;div&gt;&lt;div&gt;&lt;div&gt;Workspace&lt;/div&gt;&lt;div&gt;management&lt;/div&gt;&lt;/div&gt;&lt;div&gt;&lt;/div&gt;&lt;div&gt;&lt;/div&gt;&lt;/div&gt;" style="text;whiteSpace=wrap;html=1;strokeColor=default;" vertex="1" parent="1">
          <mxGeometry x="555" y="170" width="100" height="50" as="geometry" />
        </mxCell>
        <mxCell id="ijSc7wbduYBFbOyhkJsg-43" style="edgeStyle=orthogonalEdgeStyle;rounded=0;orthogonalLoop=1;jettySize=auto;html=1;entryX=0;entryY=0.5;entryDx=0;entryDy=0;startArrow=classic;startFill=1;" edge="1" parent="1" source="ijSc7wbduYBFbOyhkJsg-4" target="ijSc7wbduYBFbOyhkJsg-2">
          <mxGeometry relative="1" as="geometry">
            <Array as="points">
              <mxPoint x="450" y="390" />
              <mxPoint x="450" y="360" />
            </Array>
          </mxGeometry>
        </mxCell>
        <mxCell id="ijSc7wbduYBFbOyhkJsg-4" value="&lt;span data-meta=&quot;&lt;--(miro-data-v1)tl2kroutqq+gnq+gn111oZynrqBnXZ2qnK2fhJ9ddV2wk6WRiY+rqZ2DlHhdZ12fnK+cXXW2XaqdpaCer65ddZa2XbKkn6Kgr3+cr5xddbZdpa6qqV11tl2upLWgXXW2XbKkn6+jXXVsdHRnXaOgpKKjr111bW1zuGddmquqrqSvpKqpXXW2Xaqhoa6gr4uzXXW2XbNddWtnXbRddWu4uGddrp6cp6BddbZdrp6cp6BddWxpbm5ycW9tbGt0bm1ycG1tuGddraCnnK+ksaCOnpynoF11bGlubnJxb21sa3RubXJwbW1nXa2qr5yvpKqpXXW2Xa2qr5yvpKqpXXVruGddraCnnK+ksaCNqq+cr6SqqV11a2ddmqucraCpr111qbCnp2ddr6Czr111XXereZGkrqSvqq3923dqq3l3q3monKmcoqCooKmvd2qreV1nXa6vtKegXXVdtpddrp2el111bHFycnBxa2xnl12hrpdddW1vZ5ddoa6cl111bGeXXaGhqZdddZddiqugqY6cqa6XXWeXXa+cl111l12el11nl12vnLGXXXWXXaiXXWeXXa+cspdddWxwcGeXXa+co5dddWxwcWeXXaejl111bGlucbhdZ12prnWcsK+jqq1ddbZdpJ9ddV1ub3BzcnFvcHFwc3Ryc3NwcmxyXWddoKmcnaegn111oZynrqC4uGddr7SroF11Xa6vpJ6moK1duGddr7SroF11bG9nXaSfXXVrZ12kqaSvpJynhJ9ddV1ub3BzcnFvcHFzcW1vc3BsbmttXbiYZ12ooK+cXXW2uLhnXbGgra6kqqlddW1nXaOqrq9ddV2opK2qaZ6qqF24(/miro-data-v1)--&gt;&quot;&gt;&lt;/span&gt;&lt;div&gt;&lt;div&gt;&lt;div&gt;Visitor&amp;nbsp;&lt;/div&gt;&lt;div&gt;management&lt;/div&gt;&lt;/div&gt;&lt;div&gt;&lt;/div&gt;&lt;div&gt;&lt;/div&gt;&lt;/div&gt;" style="text;whiteSpace=wrap;html=1;strokeColor=default;" vertex="1" parent="1">
          <mxGeometry x="270" y="365" width="100" height="50" as="geometry" />
        </mxCell>
        <mxCell id="ijSc7wbduYBFbOyhkJsg-5" value="&lt;span data-meta=&quot;&lt;--(miro-data-v1)tl2kroutqq+gnq+gn111oZynrqBnXZ2qnK2fhJ9ddV2wk6WRiY+rqZ2DlHhdZ12fnK+cXXW2XaqdpaCer65ddZa2XbKkn6Kgr3+cr5xddbZdpa6qqV11tl2upLWgXXW2XbKkn6+jXXVsdHRnXaOgpKKjr111bW1zuGddmquqrqSvpKqpXXW2Xaqhoa6gr4uzXXW2XbNddWtnXbRddWu4uGddrp6cp6BddbZdrp6cp6BddWxpbm5ycW9tbGt0bm1ycG1scrhnXa2gp5yvpLGgjp6cp6BddWxpbm5ycW9tbGt0bm1ycG1scmddraqvnK+kqqlddbZdraqvnK+kqqlddWu4Z12toKecr6SxoI2qr5yvpKqpXXVrZ12aq5ytoKmvXXWpsKenZ12voLOvXXVdd6t5jpynnK20d2qreXereYicqZyioKigqa93aqt5XWddrq+0p6BddV22l12unZ6XXXVscXJycHFrbGeXXaGul111bW9nl12hrpyXXXVsZ5ddoaGpl111l12Kq6CpjpyprpddZ5ddr5yXXXWXXZ6XXWeXXa+csZdddZddqJddZ5ddr5yyl111bHBwZ5ddr5yjl111bHBxZ5ddp6OXXXVsaW5xuF1nXamudZywr6OqrV11tl2kn111XW5vcHNycW9wcXBzdHJzc3BybHJdZ12gqZydp6CfXXWhnKeuoLi4Z12vtKugXXVdrq+knqagrV24Z12vtKugXXVsb2ddpJ9ddWtnXaSppK+knKeEn111XW5vcHNycW9wcXNxbXFxcmxyb3NduJhnXaigr5xddba4uGddsaCtrqSqqV11bWddo6qur111XaikrappnqqoXbg=(/miro-data-v1)--&gt;&quot;&gt;&lt;/span&gt;&lt;div&gt;&lt;div&gt;&lt;div&gt;Salary&lt;/div&gt;&lt;div&gt;Management&lt;/div&gt;&lt;/div&gt;&lt;div&gt;&lt;/div&gt;&lt;div&gt;&lt;/div&gt;&lt;/div&gt;" style="text;whiteSpace=wrap;html=1;strokeColor=default;" vertex="1" parent="1">
          <mxGeometry x="700" y="430" width="100" height="50" as="geometry" />
        </mxCell>
        <mxCell id="ijSc7wbduYBFbOyhkJsg-6" value="&lt;span data-meta=&quot;&lt;--(miro-data-v1)tl2kroutqq+gnq+gn111oZynrqBnXZ2qnK2fhJ9ddV2wk6WRiY+rqZ2DlHhdZ12fnK+cXXW2XaqdpaCer65ddZa2XbKkn6Kgr3+cr5xddbZdpa6qqV11tl2upLWgXXW2XbKkn6+jXXVsdHRnXaOgpKKjr111bW1zuGddmquqrqSvpKqpXXW2Xaqhoa6gr4uzXXW2XbNddWtnXbRddWhsaW9tbGtzcG9ybHBta21ra2+gaGxvuLhnXa6enKegXXW2Xa6enKegXXVsaWtyuGddraCnnK+ksaCOnpynoF11bGlrcmddraqvnK+kqqlddbZdraqvnK+kqqlddWu4Z12toKecr6SxoI2qr5yvpKqpXXVrZ12aq5ytoKmvXXWpsKenZ12voLOvXXVdd6t5h6SdrZyttFurraqoqq+kqql3aqt5XWddrq+0p6BddV22l12unZ6XXXVscXJycHFrbGeXXaGul111bmtnl12hrpyXXXVsZ5ddoaGpl111l12Kq6CpjpyprpddZ5ddr5yXXXWXXZ6XXWeXXa+csZdddZddqJddZ5ddr5yyl111bHBwZ5ddr5yjl111bHBxZ5ddp6OXXXVsaW5xuF1nXamudZywr6OqrV11tl2kn111XW5vcHNycW9wcXBzdHJzc3BybHJdZ12gqZydp6CfXXWhnKeuoLi4Z12vtKugXXVdrq+knqagrV24Z12vtKugXXVsb2ddpJ9ddWtnXaSppK+knKeEn111XW5vcHNycW9wcXNxbXFvbHJzdHJduJhnXaigr5xddba4uGddsaCtrqSqqV11bWddo6qur111XaikrappnqqoXbg=(/miro-data-v1)--&gt;&quot;&gt;&lt;/span&gt;&lt;div&gt;&lt;div&gt;&lt;div&gt;Library promotion&lt;/div&gt;&lt;/div&gt;&lt;div&gt;&lt;/div&gt;&lt;div&gt;&lt;/div&gt;&lt;/div&gt;" style="text;whiteSpace=wrap;html=1;strokeColor=default;" vertex="1" parent="1">
          <mxGeometry x="90" y="480" width="130" height="40" as="geometry" />
        </mxCell>
        <mxCell id="ijSc7wbduYBFbOyhkJsg-8" value="&lt;span data-meta=&quot;&lt;--(miro-data-v1)tl2kroutqq+gnq+gn111oZynrqBnXZ2qnK2fhJ9ddV2wk6WRiY+rqZ2DlHhdZ12fnK+cXXW2XaqdpaCer65ddZa2XbKkn6Kgr3+cr5xddbZdpa6qqV11tl2upLWgXXW2XbKkn6+jXXVsdHRnXaOgpKKjr111bW1zuGddmquqrqSvpKqpXXW2Xaqhoa6gr4uzXXW2XbNddWtnXbRddWu4uGddrp6cp6BddbZdrp6cp6BddWxpa3K4Z12toKecr6SxoI6enKegXXVsaWtyZ12tqq+cr6SqqV11tl2tqq+cr6SqqV11a7hnXa2gp5yvpLGgjaqvnK+kqqlddWtnXZqrnK2gqa9ddamwp6dnXa+gs69ddV13q3l/nK+cnZyuoHdqq3l3q3monKmcoqCooKmvd2qreV1nXa6vtKegXXVdtpddrp2el111bHFycnBxa2xnl12hrpdddW1vZ5ddoa6cl111bGeXXaGhqZdddZddiqugqY6cqa6XXWeXXa+cl111l12el11nl12vnLGXXXWXXaiXXWeXXa+cspdddWxwcGeXXa+co5dddWxwcWeXXaejl111bGlucbhdZ12prnWcsK+jqq1ddbZdpJ9ddV1ub3BzcnFvcHFwc3Ryc3NwcmxyXWddoKmcnaegn111oZynrqC4uGddr7SroF11Xa6vpJ6moK1duGddr7SroF11bG9nXaSfXXVrZ12kqaSvpJynhJ9ddV1ub3BzcnFvcHFzcW1xb2xyb3JuXbiYZ12ooK+cXXW2uLhnXbGgra6kqqlddW1nXaOqrq9ddV2opK2qaZ6qqF24(/miro-data-v1)--&gt;&quot;&gt;&lt;/span&gt;&lt;div&gt;&lt;div&gt;&lt;div&gt;Database&lt;/div&gt;&lt;div&gt;management&lt;/div&gt;&lt;/div&gt;&lt;div&gt;&lt;/div&gt;&lt;div&gt;&lt;/div&gt;&lt;/div&gt;" style="text;whiteSpace=wrap;html=1;strokeColor=default;" vertex="1" parent="1">
          <mxGeometry x="220" y="650" width="100" height="50" as="geometry" />
        </mxCell>
        <mxCell id="ijSc7wbduYBFbOyhkJsg-9" value="&lt;span data-meta=&quot;&lt;--(miro-data-v1)tl2kroutqq+gnq+gn111oZynrqBnXZ2qnK2fhJ9ddV2wk6WRiY+rqZ2DlHhdZ12fnK+cXXW2XaqdpaCer65ddZa2XbKkn6Kgr3+cr5xddbZdpa6qqV11tl2upLWgXXW2XbKkn6+jXXVsdHRnXaOgpKKjr111bW1zuGddmquqrqSvpKqpXXW2Xaqhoa6gr4uzXXW2XbNddWtnXbRddWu4uGddrp6cp6BddbZdrp6cp6BddWxpa3K4Z12toKecr6SxoI6enKegXXVsaWtyZ12tqq+cr6SqqV11tl2tqq+cr6SqqV11a7hnXa2gp5yvpLGgjaqvnK+kqqlddWtnXZqrnK2gqa9ddamwp6dnXa+gs69ddV13q3mSoJ2rnKKgd2qreXereZ+gq5ytr6igqa93aqt5XWddrq+0p6BddV22l12unZ6XXXVscXJycHFrbGeXXaGul111bXFnl12hrpyXXXVsZ5ddoaGpl111l12Kq6CpjpyprpddZ5ddr5yXXXWXXZ6XXWeXXa+csZdddZddqJddZ5ddr5yyl111bHBwZ5ddr5yjl111bHBxZ5ddp6OXXXVsaW5xuF1nXamudZywr6OqrV11tl2kn111XW5vcHNycW9wcXBzdHJzc3BybHJdZ12gqZydp6CfXXWhnKeuoLi4Z12vtKugXXVdrq+knqagrV24Z12vtKugXXVsb2ddpJ9ddWtnXaSppK+knKeEn111XW5vcHNycW9wcXNxbXBrbnRycHRduJhnXaigr5xddba4uGddsaCtrqSqqV11bWddo6qur111XaikrappnqqoXbg=(/miro-data-v1)--&gt;&quot;&gt;&lt;/span&gt;&lt;div&gt;&lt;div&gt;&lt;div&gt;Webpage&lt;/div&gt;&lt;div&gt;department&lt;/div&gt;&lt;/div&gt;&lt;div&gt;&lt;/div&gt;&lt;div&gt;&lt;/div&gt;&lt;/div&gt;" style="text;whiteSpace=wrap;html=1;strokeColor=default;" vertex="1" parent="1">
          <mxGeometry x="454" y="520" width="90" height="50" as="geometry" />
        </mxCell>
        <mxCell id="ijSc7wbduYBFbOyhkJsg-23" style="edgeStyle=orthogonalEdgeStyle;rounded=0;orthogonalLoop=1;jettySize=auto;html=1;entryX=0;entryY=0.5;entryDx=0;entryDy=0;" edge="1" parent="1" source="ijSc7wbduYBFbOyhkJsg-10" target="ijSc7wbduYBFbOyhkJsg-9">
          <mxGeometry relative="1" as="geometry" />
        </mxCell>
        <mxCell id="ijSc7wbduYBFbOyhkJsg-24" style="edgeStyle=orthogonalEdgeStyle;rounded=0;orthogonalLoop=1;jettySize=auto;html=1;entryX=0.5;entryY=1;entryDx=0;entryDy=0;" edge="1" parent="1" source="ijSc7wbduYBFbOyhkJsg-10" target="ijSc7wbduYBFbOyhkJsg-6">
          <mxGeometry relative="1" as="geometry" />
        </mxCell>
        <mxCell id="ijSc7wbduYBFbOyhkJsg-10" value="&lt;span data-meta=&quot;&lt;--(miro-data-v1)tl2kroutqq+gnq+gn111oZynrqBnXZ2qnK2fhJ9ddV2wk6WRiY+rqZ2DlHhdZ12fnK+cXXW2XaqdpaCer65ddZa2XbKkn6Kgr3+cr5xddbZdpa6qqV11tl2upLWgXXW2XbKkn6+jXXVsdHRnXaOgpKKjr111bW1zuGddmquqrqSvpKqpXXW2Xaqhoa6gr4uzXXW2XbNddWtnXbRddWu4uGddrp6cp6BddbZdrp6cp6BddWxpa3K4Z12toKecr6SxoI6enKegXXVsaWtyZ12tqq+cr6SqqV11tl2tqq+cr6SqqV11a7hnXa2gp5yvpLGgjaqvnK+kqqlddWtnXZqrnK2gqa9ddamwp6dnXa+gs69ddV13q3mOoJ6wraSvtP3bd2qreXereX+qqJykqXdqq3ldZ12ur7SnoF11XbaXXa6dnpdddWxxcnJwcWtsZ5ddoa6XXXVuc2eXXaGunJdddWxnl12hoamXXXWXXYqroKmOnKmul11nl12vnJdddZddnpddZ5ddr5yxl111l12ol11nl12vnLKXXXVscHBnl12vnKOXXXVscHFnl12no5dddWxpbnG4XWddqa51nLCvo6qtXXW2XaSfXXVdbm9wc3Jxb3BxcHN0cnNzcHJscl1nXaCpnJ2noJ9ddaGcp66guLhnXa+0q6BddV2ur6SepqCtXbhnXa+0q6BddWxvZ12kn111a2ddpKmkr6Scp4SfXXVdbm9wc3Jxb3BybHNrc2twb29wbl24mGddqKCvnF11tri4Z12xoK2upKqpXXVtZ12jqq6vXXVdqKStqmmeqqhduA==(/miro-data-v1)--&gt;&quot;&gt;&lt;/span&gt;&lt;div&gt;&lt;div&gt;&lt;div&gt;Security&amp;nbsp;&lt;/div&gt;&lt;div&gt;Domain&lt;/div&gt;&lt;/div&gt;&lt;div&gt;&lt;/div&gt;&lt;div&gt;&lt;/div&gt;&lt;/div&gt;" style="text;whiteSpace=wrap;html=1;strokeColor=default;" vertex="1" parent="1">
          <mxGeometry x="250" y="520" width="80" height="50" as="geometry" />
        </mxCell>
        <mxCell id="ijSc7wbduYBFbOyhkJsg-15" value="Shared Kernel" style="edgeStyle=orthogonalEdgeStyle;rounded=0;orthogonalLoop=1;jettySize=auto;html=1;entryX=0.75;entryY=1;entryDx=0;entryDy=0;endArrow=none;endFill=0;" edge="1" parent="1" source="ijSc7wbduYBFbOyhkJsg-11" target="ijSc7wbduYBFbOyhkJsg-8">
          <mxGeometry relative="1" as="geometry">
            <Array as="points">
              <mxPoint x="490" y="730" />
              <mxPoint x="295" y="730" />
            </Array>
          </mxGeometry>
        </mxCell>
        <mxCell id="ijSc7wbduYBFbOyhkJsg-11" value="&lt;span data-meta=&quot;&lt;--(miro-data-v1)tl2kroutqq+gnq+gn111oZynrqBnXZ2qnK2fhJ9ddV2wk6WRiY+rqZ2DlHhdZ12fnK+cXXW2XaqdpaCer65ddZa2XbKkn6Kgr3+cr5xddbZdpa6qqV11tl2upLWgXXW2XbKkn6+jXXVsdHRnXaOgpKKjr111bW1zuGddmquqrqSvpKqpXXW2Xaqhoa6gr4uzXXW2XbNddWtnXbRddWu4uGddrp6cp6BddbZdrp6cp6BddWxpbm5ycW9tbGt0bm1ycGxycLhnXa2gp5yvpLGgjp6cp6BddWxpbm5ycW9tbGt0bm1ycGxycGddraqvnK+kqqlddbZdraqvnK+kqqlddWu4Z12toKecr6SxoI2qr5yvpKqpXXVrZ12aq5ytoKmvXXWpsKenZ12voLOvXXVdd6t5kK6grVuonKmcoqCooK+pd2qreXerea60rq+gqHdqq3ldZ12ur7SnoF11XbaXXa6dnpdddWxxcnJwcWtsZ5ddoa6XXXVtb2eXXaGunJdddWxnl12hoamXXXWXXYqroKmOnKmul11nl12vnJdddZddnpddZ5ddr5yxl111l12ol11nl12vnLKXXXVscHBnl12vnKOXXXVscHFnl12no5dddWxpbnG4XWddqa51nLCvo6qtXXW2XaSfXXVdbm9wc3Jxb3BxcHN0cnNzcHJscl1nXaCpnJ2noJ9ddaGcp66guLhnXa+0q6BddV2ur6SepqCtXbhnXa+0q6BddWxvZ12kn111a2ddpKmkr6Scp4SfXXVdbm9wc3Jxb3Bxc3FtcGtudG5wbF24mGddqKCvnF11tri4Z12xoK2upKqpXXVtZ12jqq6vXXVdqKStqmmeqqhduA==(/miro-data-v1)--&gt;&quot;&gt;&lt;/span&gt;&lt;div&gt;&lt;div&gt;&lt;div&gt;User management&lt;/div&gt;&lt;div&gt;system&lt;/div&gt;&lt;/div&gt;&lt;div&gt;&lt;/div&gt;&lt;div&gt;&lt;/div&gt;&lt;/div&gt;" style="text;whiteSpace=wrap;html=1;strokeColor=default;" vertex="1" parent="1">
          <mxGeometry x="414" y="780" width="130" height="50" as="geometry" />
        </mxCell>
        <mxCell id="ijSc7wbduYBFbOyhkJsg-14" value="Shared Kernel" style="edgeStyle=orthogonalEdgeStyle;rounded=0;orthogonalLoop=1;jettySize=auto;html=1;entryX=0.5;entryY=1;entryDx=0;entryDy=0;endArrow=none;endFill=0;" edge="1" parent="1" source="ijSc7wbduYBFbOyhkJsg-12" target="ijSc7wbduYBFbOyhkJsg-8">
          <mxGeometry relative="1" as="geometry" />
        </mxCell>
        <mxCell id="ijSc7wbduYBFbOyhkJsg-16" value="Shared Kernel" style="edgeStyle=orthogonalEdgeStyle;rounded=0;orthogonalLoop=1;jettySize=auto;html=1;endArrow=none;endFill=0;" edge="1" parent="1" source="ijSc7wbduYBFbOyhkJsg-12" target="ijSc7wbduYBFbOyhkJsg-11">
          <mxGeometry relative="1" as="geometry" />
        </mxCell>
        <mxCell id="ijSc7wbduYBFbOyhkJsg-12" value="&lt;span data-meta=&quot;&lt;--(miro-data-v1)tl2kroutqq+gnq+gn111oZynrqBnXZ2qnK2fhJ9ddV2wk6WRiY+rqZ2DlHhdZ12fnK+cXXW2XaqdpaCer65ddZa2XbKkn6Kgr3+cr5xddbZdpa6qqV11tl2upLWgXXW2XbKkn6+jXXVsdHRnXaOgpKKjr111bW1zuGddmquqrqSvpKqpXXW2Xaqhoa6gr4uzXXW2XbNddWtnXbRddXBpcXNvbm9sc3Nxa3Nrc2ttoGhsb7i4Z12unpynoF11tl2unpynoF11bGlubnJxb21sa3RubXJwbHNzuGddraCnnK+ksaCOnpynoF11bGlubnJxb21sa3RubXJwbHNzZ12tqq+cr6SqqV11tl2tqq+cr6SqqV11a7hnXa2gp5yvpLGgjaqvnK+kqqlddWtnXZqrnK2gqa9ddamwp6dnXa+gs69ddV13q3l9qqqmW6icqZyioKigqa93aqt5d6t5rrSur6Cod2qreV1nXa6vtKegXXVdtpddrp2el111bHFycnBxa2xnl12hrpdddW1vZ5ddoa6cl111bGeXXaGhqZdddZddiqugqY6cqa6XXWeXXa+cl111l12el11nl12vnLGXXXWXXaiXXWeXXa+cspdddWxwcGeXXa+co5dddWxwcWeXXaejl111bGlucbhdZ12prnWcsK+jqq1ddbZdpJ9ddV1ub3BzcnFvcHFwc3Ryc3NwcmxyXWddoKmcnaegn111oZynrqC4uGddr7SroF11Xa6vpJ6moK1duGddr7SroF11bG9nXaSfXXVrZ12kqaSvpJynhJ9ddV1ub3BzcnFvcHFzcW1wb210bXNuXbiYZ12ooK+cXXW2uLhnXbGgra6kqqlddW1nXaOqrq9ddV2opK2qaZ6qqF24(/miro-data-v1)--&gt;&quot;&gt;&lt;/span&gt;&lt;div&gt;&lt;div&gt;&lt;div&gt;Book management&lt;/div&gt;&lt;div&gt;system&lt;/div&gt;&lt;/div&gt;&lt;div&gt;&lt;/div&gt;&lt;div&gt;&lt;/div&gt;&lt;/div&gt;" style="text;whiteSpace=wrap;html=1;strokeColor=default;" vertex="1" parent="1">
          <mxGeometry x="90" y="780" width="130" height="50" as="geometry" />
        </mxCell>
        <mxCell id="ijSc7wbduYBFbOyhkJsg-13" style="edgeStyle=orthogonalEdgeStyle;rounded=0;orthogonalLoop=1;jettySize=auto;html=1;exitX=0.5;exitY=1;exitDx=0;exitDy=0;" edge="1" parent="1" source="ijSc7wbduYBFbOyhkJsg-12" target="ijSc7wbduYBFbOyhkJsg-12">
          <mxGeometry relative="1" as="geometry" />
        </mxCell>
        <mxCell id="ijSc7wbduYBFbOyhkJsg-20" value="U" style="edgeStyle=orthogonalEdgeStyle;rounded=0;orthogonalLoop=1;jettySize=auto;html=1;entryX=0.5;entryY=1;entryDx=0;entryDy=0;" edge="1" parent="1" source="ijSc7wbduYBFbOyhkJsg-19" target="ijSc7wbduYBFbOyhkJsg-10">
          <mxGeometry x="-0.7778" y="-10" relative="1" as="geometry">
            <mxPoint as="offset" />
          </mxGeometry>
        </mxCell>
        <mxCell id="ijSc7wbduYBFbOyhkJsg-19" value="" style="ellipse;whiteSpace=wrap;html=1;fillColor=none;" vertex="1" parent="1">
          <mxGeometry x="40" y="620" width="580" height="290" as="geometry" />
        </mxCell>
        <mxCell id="ijSc7wbduYBFbOyhkJsg-21" value="U" style="text;html=1;strokeColor=none;fillColor=none;align=center;verticalAlign=middle;whiteSpace=wrap;rounded=0;" vertex="1" parent="1">
          <mxGeometry x="210" y="550" width="30" height="20" as="geometry" />
        </mxCell>
        <mxCell id="ijSc7wbduYBFbOyhkJsg-26" value="D" style="text;html=1;strokeColor=none;fillColor=none;align=center;verticalAlign=middle;whiteSpace=wrap;rounded=0;" vertex="1" parent="1">
          <mxGeometry x="120" y="520" width="30" height="20" as="geometry" />
        </mxCell>
        <mxCell id="ijSc7wbduYBFbOyhkJsg-27" value="D" style="text;html=1;strokeColor=none;fillColor=none;align=center;verticalAlign=middle;whiteSpace=wrap;rounded=0;" vertex="1" parent="1">
          <mxGeometry x="260" y="570" width="30" height="20" as="geometry" />
        </mxCell>
        <mxCell id="ijSc7wbduYBFbOyhkJsg-30" value="U" style="text;html=1;strokeColor=none;fillColor=none;align=center;verticalAlign=middle;whiteSpace=wrap;rounded=0;" vertex="1" parent="1">
          <mxGeometry x="330" y="550" width="30" height="20" as="geometry" />
        </mxCell>
        <mxCell id="ijSc7wbduYBFbOyhkJsg-31" value="D" style="text;html=1;strokeColor=none;fillColor=none;align=center;verticalAlign=middle;whiteSpace=wrap;rounded=0;" vertex="1" parent="1">
          <mxGeometry x="320" y="445" width="30" height="20" as="geometry" />
        </mxCell>
        <mxCell id="ijSc7wbduYBFbOyhkJsg-32" value="D" style="text;html=1;strokeColor=none;fillColor=none;align=center;verticalAlign=middle;whiteSpace=wrap;rounded=0;" vertex="1" parent="1">
          <mxGeometry x="414" y="550" width="30" height="20" as="geometry" />
        </mxCell>
        <mxCell id="ijSc7wbduYBFbOyhkJsg-33" value="U" style="text;html=1;strokeColor=none;fillColor=none;align=center;verticalAlign=middle;whiteSpace=wrap;rounded=0;" vertex="1" parent="1">
          <mxGeometry x="260" y="480" width="30" height="20" as="geometry" />
        </mxCell>
        <mxCell id="ijSc7wbduYBFbOyhkJsg-38" value="U" style="text;html=1;strokeColor=none;fillColor=none;align=center;verticalAlign=middle;whiteSpace=wrap;rounded=0;" vertex="1" parent="1">
          <mxGeometry x="570" y="410" width="30" height="20" as="geometry" />
        </mxCell>
        <mxCell id="ijSc7wbduYBFbOyhkJsg-39" value="D" style="text;html=1;strokeColor=none;fillColor=none;align=center;verticalAlign=middle;whiteSpace=wrap;rounded=0;" vertex="1" parent="1">
          <mxGeometry x="610" y="380" width="30" height="20" as="geometry" />
        </mxCell>
        <mxCell id="ijSc7wbduYBFbOyhkJsg-40" value="OHS" style="text;html=1;strokeColor=default;fillColor=default;align=center;verticalAlign=middle;whiteSpace=wrap;rounded=0;" vertex="1" parent="1">
          <mxGeometry x="260" y="500" width="60" height="20" as="geometry" />
        </mxCell>
        <mxCell id="ijSc7wbduYBFbOyhkJsg-42" value="" style="edgeStyle=orthogonalEdgeStyle;rounded=0;orthogonalLoop=1;jettySize=auto;html=1;" edge="1" parent="1" target="ijSc7wbduYBFbOyhkJsg-41">
          <mxGeometry relative="1" as="geometry">
            <mxPoint x="290" y="500" as="sourcePoint" />
            <mxPoint x="320" y="450" as="targetPoint" />
          </mxGeometry>
        </mxCell>
        <mxCell id="ijSc7wbduYBFbOyhkJsg-41" value="ACL" style="text;html=1;strokeColor=default;fillColor=default;align=center;verticalAlign=middle;whiteSpace=wrap;rounded=0;" vertex="1" parent="1">
          <mxGeometry x="290" y="415" width="60" height="20" as="geometry" />
        </mxCell>
        <mxCell id="ijSc7wbduYBFbOyhkJsg-46" value="U" style="text;html=1;strokeColor=none;fillColor=none;align=center;verticalAlign=middle;whiteSpace=wrap;rounded=0;" vertex="1" parent="1">
          <mxGeometry x="570" y="320" width="30" height="20" as="geometry" />
        </mxCell>
        <mxCell id="ijSc7wbduYBFbOyhkJsg-47" value="D" style="text;html=1;strokeColor=none;fillColor=none;align=center;verticalAlign=middle;whiteSpace=wrap;rounded=0;" vertex="1" parent="1">
          <mxGeometry x="610" y="230" width="30" height="20" as="geometry" />
        </mxCell>
        <mxCell id="ijSc7wbduYBFbOyhkJsg-48" value="DataBase" style="text;html=1;strokeColor=none;fillColor=none;align=center;verticalAlign=middle;whiteSpace=wrap;rounded=0;" vertex="1" parent="1">
          <mxGeometry x="394" y="600" width="60" height="30" as="geometry" />
        </mxCell>
        <mxCell id="ijSc7wbduYBFbOyhkJsg-49" style="edgeStyle=orthogonalEdgeStyle;rounded=0;orthogonalLoop=1;jettySize=auto;html=1;entryX=0.074;entryY=0.238;entryDx=0;entryDy=0;entryPerimeter=0;exitX=0;exitY=0.5;exitDx=0;exitDy=0;" edge="1" parent="1" source="ijSc7wbduYBFbOyhkJsg-50">
          <mxGeometry relative="1" as="geometry">
            <mxPoint x="210" y="380.98" as="sourcePoint" />
            <mxPoint x="82.92000000000007" y="680" as="targetPoint" />
            <Array as="points">
              <mxPoint x="83" y="390" />
            </Array>
          </mxGeometry>
        </mxCell>
        <mxCell id="ijSc7wbduYBFbOyhkJsg-50" value="OHS" style="text;html=1;strokeColor=default;fillColor=default;align=center;verticalAlign=middle;whiteSpace=wrap;rounded=0;" vertex="1" parent="1">
          <mxGeometry x="210" y="380" width="60" height="20" as="geometry" />
        </mxCell>
        <mxCell id="ijSc7wbduYBFbOyhkJsg-52" value="ACL" style="text;html=1;strokeColor=default;fillColor=default;align=center;verticalAlign=middle;whiteSpace=wrap;rounded=0;" vertex="1" parent="1">
          <mxGeometry x="50" y="680" width="60" height="20" as="geometry" />
        </mxCell>
      </root>
    </mxGraphModel>
  </diagram>
</mxfile>
